<svg xmlns="http://www.w3.org/2000/svg" width="26.848" height="57.275" viewBox="0 0 26.848 57.275">
  <g id="_007-note" data-name="007-note" transform="translate(-136)">
    <path id="Path_28" data-name="Path 28" d="M137.119,367.177A1.119,1.119,0,1,0,136,366.059,1.12,1.12,0,0,0,137.119,367.177Z" transform="translate(0 -324.116)"/>
    <path id="Path_29" data-name="Path 29" d="M162.095,23.3a6.715,6.715,0,0,0-2.058-2.4l-4.551-3.252a1.117,1.117,0,0,1-.469-.909V11.187h1.119a1.119,1.119,0,0,0,1.119-1.119V5.593a1.119,1.119,0,0,0-1.119-1.119H153.9V1.119A1.119,1.119,0,0,0,152.78,0h-6.712a1.119,1.119,0,0,0-1.119,1.119V4.475h-2.237a1.119,1.119,0,0,0-1.119,1.119v4.475a1.119,1.119,0,0,0,1.119,1.119h1.119v5.561a1.12,1.12,0,0,1-.469.909l-4.551,3.252A6.808,6.808,0,0,0,136,26.37V36.909a1.119,1.119,0,1,0,2.237,0V26.37a4.483,4.483,0,0,1,1.874-3.641l4.552-3.251a3.365,3.365,0,0,0,1.405-2.731V16.23a10.513,10.513,0,0,0,6.712,0v.518a3.365,3.365,0,0,0,1.405,2.731l4.552,3.251a4.483,4.483,0,0,1,1.874,3.641V51.682a3.369,3.369,0,0,1-3.356,3.356H141.593a3.369,3.369,0,0,1-3.356-3.356v-4.7a1.119,1.119,0,1,0-2.237,0v4.7a5.667,5.667,0,0,0,5.593,5.593h15.661a5.663,5.663,0,0,0,5.593-5.593V26.37a6.725,6.725,0,0,0-.753-3.066ZM148.305,8.949V6.712h2.237V8.949Zm6.712,0H152.78V6.712h2.237Zm-7.831-6.712h4.475V4.475h-4.475Zm-3.356,4.475h2.237V8.949h-2.237Zm5.593,7.831a8.773,8.773,0,0,1-3.356-.7V11.187h6.712v2.655A8.784,8.784,0,0,1,149.424,14.543Z" transform="translate(0)"/>
    <path id="Path_30" data-name="Path 30" d="M307.119,314.14a1.119,1.119,0,1,0,1.119,1.119A1.12,1.12,0,0,0,307.119,314.14Z" transform="translate(-150.983 -278.998)"/>
    <path id="Path_31" data-name="Path 31" d="M201.66,213.119A1.119,1.119,0,0,0,200.542,212h-8.949A5.589,5.589,0,0,0,186,217.593v20.136a3.356,3.356,0,0,0,6.712,0v-.735a20,20,0,0,1,3.884-.384h3.947a1.119,1.119,0,0,0,1.119-1.119v-5.913a1.119,1.119,0,1,0-2.237,0v4.795H196.6a22.357,22.357,0,0,0-3.884.344V217.593a1.119,1.119,0,1,0-2.237,0,1.119,1.119,0,0,1-2.237,0,3.369,3.369,0,0,1,3.356-3.356h7.831v5.273a1.119,1.119,0,1,0,2.237,0Zm-12.305,7.831a3.342,3.342,0,0,0,1.119-.192v16.972a1.119,1.119,0,0,1-2.237,0V220.758A3.342,3.342,0,0,0,189.355,220.949Z" transform="translate(-44.406 -188.284)"/>
  </g>
</svg>
