<svg id="_025-sailor_hat" data-name="025-sailor hat" xmlns="http://www.w3.org/2000/svg" width="163.417" height="117.456" viewBox="0 0 163.417 117.456">
  <path id="Path_22" data-name="Path 22" d="M151.749,147.616a6.239,6.239,0,0,0,.5-2.426v-6.967a6.493,6.493,0,0,0-.078-1,17.549,17.549,0,0,0,.459-32.575l.007-.016a17.439,17.439,0,0,0-4.381-1.2,2.909,2.909,0,0,0-.437-.032,3.193,3.193,0,0,0-.428,6.356,11.022,11.022,0,0,1,2.5.645l-.011.014a11.169,11.169,0,0,1-3.259,21.568h-.009c-.5.032-.827.009-1.185.059a461.65,461.65,0,0,1-127.427,0c-.358-.05-.689-.027-1.185-.059H16.8a11.172,11.172,0,0,1,.73-22.318c1.124.018,15.188-.118,29.729-14.662.785-.786,1.566-1.59,2.321-2.368,7.114-7.331,13.833-14.255,32.127-14.255s25.014,6.924,32.127,14.255c.582.6,2.908,2.94,3.2,3.214a3.191,3.191,0,1,0,4.424-4.6c-.259-.252-2.58-2.588-3.039-3.061C111.05,80.6,102.7,72,81.708,72S52.365,80.6,45,88.193c-.738.761-1.5,1.548-2.254,2.3-12.789,12.791-24.639,12.791-25.116,12.793h-.076a17.556,17.556,0,0,0-6.305,33.941,6.475,6.475,0,0,0-.078,1v6.967a6.256,6.256,0,0,0,.494,2.427L2.839,159.334A10.222,10.222,0,0,0,7.2,174.968a199.505,199.505,0,0,0,74.5,14.487,199.505,199.505,0,0,0,74.5-14.487,10.222,10.222,0,0,0,4.365-15.634Zm-5.888-9.185v6.726a.316.316,0,0,1-.138.056c-39.77,7.185-87.636,7.184-128.041,0a.287.287,0,0,1-.129-.052v-6.728A468.012,468.012,0,0,0,145.861,138.432ZM156.108,166.5a3.827,3.827,0,0,1-2.277,2.542,192.467,192.467,0,0,1-144.246,0,3.837,3.837,0,0,1-1.647-5.868l8.778-11.653a378.853,378.853,0,0,0,65.23,5.457,370.8,370.8,0,0,0,64.755-5.457l8.777,11.652A3.8,3.8,0,0,1,156.108,166.5Z" transform="translate(0.001 -72)" fill="#f81"/>
  <path id="Path_23" data-name="Path 23" d="M212.665,149.754a3.192,3.192,0,1,0-4.5,4.527,20.739,20.739,0,0,0,29.254,0,3.192,3.192,0,1,0-4.5-4.527,14.273,14.273,0,0,1-6.934,3.82v-9.218h4.788a3.192,3.192,0,0,0,0-6.385h-.85a9.575,9.575,0,1,0-14.259,0h-.85a3.192,3.192,0,0,0,0,6.385H219.6v9.218A14.273,14.273,0,0,1,212.665,149.754Zm10.126-21.36a3.192,3.192,0,1,1-3.192,3.192A3.2,3.2,0,0,1,222.792,128.395Z" transform="translate(-141.083 -106.048)" fill="#f81"/>
  <path id="Path_24" data-name="Path 24" d="M406.363,164.587a0,0,0,0,1,0,0,3.194,3.194,0,1,0-1.484-4.265A3.183,3.183,0,0,0,406.366,164.59Z" transform="translate(-275.438 -130.906)" fill="#f81"/>
</svg>
