<svg id="_026-compass" data-name="026-compass" xmlns="http://www.w3.org/2000/svg" width="107.933" height="107.933" viewBox="0 0 107.933 107.933">
  <path id="Path_32" data-name="Path 32" d="M164.724,53.967a53.963,53.963,0,0,0-91.2-39.059v0q-.467.445-.924.9l-.021.021a2.11,2.11,0,0,0,0,2.981,2.107,2.107,0,0,0,2.981,0,.025.025,0,0,1,.011-.011s.006-.006.008-.011c.258-.258.52-.512.784-.763a49.743,49.743,0,0,1,81.23,52.7l.016.005c-.173.485-.351.969-.539,1.45A2.108,2.108,0,1,0,161,73.717q.207-.528.4-1.062l.012.005a53.952,53.952,0,0,0,3.316-18.693Z" transform="translate(-56.791)" fill="#f81"/>
  <path id="Path_33" data-name="Path 33" d="M211.736,205.617a2.108,2.108,0,0,0,1.755-3.278l-16.865-25.3c-.009-.014-.02-.027-.029-.04a2.108,2.108,0,0,0-3.479.04l-16.865,25.3a2.108,2.108,0,0,0,2.494,3.143l16.124-6.047L211,205.482A2.1,2.1,0,0,0,211.736,205.617Zm-18.972-9.893-9.377,3.516,9.377-14.066Zm4.216,0V185.174l9.377,14.066Z" transform="translate(-138.818 -138.981)" fill="#f81"/>
  <path id="Path_34" data-name="Path 34" d="M357.656,92.224a2.511,2.511,0,0,0-.718-1.067,2.157,2.157,0,0,0-.905-.57.737.737,0,0,0-.785.168l-8.519,8.519a.736.736,0,0,0-.168.785,2.415,2.415,0,0,0,1.476,1.476.737.737,0,0,0,.785-.168l4.561-4.561L351.29,104a1.71,1.71,0,0,0,.6,1.731,2.155,2.155,0,0,0,.905.57.737.737,0,0,0,.785-.168l8.532-8.532a.718.718,0,0,0,.161-.778,2.5,2.5,0,0,0-1.476-1.476.718.718,0,0,0-.778.161l-4.561,4.561,1.972-6.319A3.208,3.208,0,0,0,357.656,92.224Z" transform="translate(-273.469 -71.456)" fill="#f81"/>
  <path id="Path_35" data-name="Path 35" d="M105.238,357.422a4.1,4.1,0,0,1,.765,1.127,4.575,4.575,0,0,0,.563,1.22.96.96,0,0,0,.992.229,2.076,2.076,0,0,0,.958-.515,1.16,1.16,0,0,0,.327-.937,2.738,2.738,0,0,0-.338-1.056,8.182,8.182,0,0,0-1.442-1.892c-1.74-1.741-4.354-2.515-6.265-.6-1.673,1.672-1.1,3.867-.335,5.849.311.8.828,2.163.108,2.884-.661.661-1.648.123-2.187-.416-.794-.794-.736-1.7-.948-2.715a1.057,1.057,0,0,0-1.3-.874,1.791,1.791,0,0,0-1.026.476,2.12,2.12,0,0,0-.242,2.173,6.5,6.5,0,0,0,1.731,2.8,5.19,5.19,0,0,0,3.2,1.658,3.745,3.745,0,0,0,3.08-1.228,4.323,4.323,0,0,0,1.093-1.724,5.481,5.481,0,0,0-.092-3.143,19.154,19.154,0,0,1-1.035-2.974,1.025,1.025,0,0,1,.248-.879C103.752,356.223,104.741,356.925,105.238,357.422Z" transform="translate(-74.737 -279.278)" fill="#f81"/>
  <path id="Path_36" data-name="Path 36" d="M187.008,95.824a2.108,2.108,0,1,0-1.963-1.334,2.094,2.094,0,0,0,1.963,1.334Z" transform="translate(-145.92 -72.296)" fill="#f81"/>
  <path id="Path_37" data-name="Path 37" d="M230.579,85.141a1.984,1.984,0,0,0,.223-.013,2.1,2.1,0,1,0-.223.013Z" transform="translate(-180.31 -63.865)" fill="#f81"/>
  <path id="Path_38" data-name="Path 38" d="M275.078,86.44a2.169,2.169,0,0,0,.348.027,2.1,2.1,0,1,0-.348-.027Z" transform="translate(-215.698 -64.913)" fill="#f81"/>
  <path id="Path_39" data-name="Path 39" d="M318.28,99.731a2.109,2.109,0,1,0-.89-.2A2.111,2.111,0,0,0,318.28,99.731Z" transform="translate(-249.521 -75.378)" fill="#f81"/>
  <path id="Path_40" data-name="Path 40" d="M396.68,317.39a2.108,2.108,0,1,0,2.8-1.021A2.106,2.106,0,0,0,396.68,317.39Z" transform="translate(-312.901 -249.52)" fill="#f81"/>
  <path id="Path_41" data-name="Path 41" d="M402.5,189.113a2.078,2.078,0,0,0,.774-.147,2.108,2.108,0,1,0-.774.147Z" transform="translate(-315.983 -145.919)" fill="#f81"/>
  <path id="Path_42" data-name="Path 42" d="M411.856,277.532a2.114,2.114,0,1,0-.348-.03,2.108,2.108,0,0,0,.348.03Z" transform="translate(-323.368 -215.698)" fill="#f81"/>
  <path id="Path_43" data-name="Path 43" d="M415.279,230.36a2.108,2.108,0,1,0-2.1,2.329c.074,0,.15,0,.223-.011A2.109,2.109,0,0,0,415.279,230.36Z" transform="translate(-324.417 -180.31)" fill="#f81"/>
  <path id="Path_44" data-name="Path 44" d="M97.62,180.041a2.11,2.11,0,1,0-.89-.2,2.111,2.111,0,0,0,.89.2Z" transform="translate(-75.378 -138.759)" fill="#f81"/>
  <path id="Path_45" data-name="Path 45" d="M82.281,220.446a2.108,2.108,0,0,0,1.733,2.424,2.186,2.186,0,0,0,.348.027,2.108,2.108,0,1,0-2.081-2.452Z" transform="translate(-64.913 -172.582)" fill="#f81"/>
  <path id="Path_46" data-name="Path 46" d="M93.716,311.315a2.132,2.132,0,0,0,.776-.148,2.109,2.109,0,1,0-.776.148Z" transform="translate(-72.296 -242.36)" fill="#f81"/>
  <path id="Path_47" data-name="Path 47" d="M80.936,265.855a2.108,2.108,0,0,0,2.093,1.887,2.018,2.018,0,0,0,.226-.013,2.108,2.108,0,1,0-2.319-1.874Z" transform="translate(-63.865 -207.971)" fill="#f81"/>
  <path id="Path_48" data-name="Path 48" d="M308.43,400.536a2.108,2.108,0,0,0,.776,4.069,2.082,2.082,0,0,0,.774-.148,2.108,2.108,0,1,0-1.549-3.921Z" transform="translate(-242.359 -315.983)" fill="#f81"/>
  <path id="Path_49" data-name="Path 49" d="M265.412,411.086a2.107,2.107,0,0,0,.219,4.2,2,2,0,0,0,.223-.011,2.108,2.108,0,0,0-.443-4.193Z" transform="translate(-207.971 -324.417)" fill="#f81"/>
  <path id="Path_50" data-name="Path 50" d="M176.021,397.7a2.108,2.108,0,1,0,2.8-1.02A2.11,2.11,0,0,0,176.021,397.7Z" transform="translate(-138.759 -312.901)" fill="#f81"/>
  <path id="Path_51" data-name="Path 51" d="M218.711,411.508a2.108,2.108,0,1,0,2.424-1.735A2.106,2.106,0,0,0,218.711,411.508Z" transform="translate(-172.582 -323.368)" fill="#f81"/>
  <path id="Path_52" data-name="Path 52" d="M46.174,106.039a2.109,2.109,0,0,0,1.908-3,41.463,41.463,0,0,1,4.218-42.1A6.324,6.324,0,1,0,60.933,52.3a41.489,41.489,0,0,1,41.98-4.278,2.108,2.108,0,1,0,1.775-3.824,45.551,45.551,0,0,0-60.425,60.627,2.109,2.109,0,0,0,1.911,1.214ZM56.292,56.291a2.108,2.108,0,1,1-.617,1.49A2.094,2.094,0,0,1,56.292,56.291Z" transform="translate(-31.542 -31.541)" fill="#f81"/>
  <path id="Path_53" data-name="Path 53" d="M217.65,159.421a2.108,2.108,0,0,0-1.025,2.8,41.49,41.49,0,0,1-4.278,41.98,6.324,6.324,0,1,0-8.633,8.634,41.462,41.462,0,0,1-42.1,4.218,2.108,2.108,0,0,0-1.788,3.818,45.322,45.322,0,0,0,19.263,4.3,46.087,46.087,0,0,0,7.593-.632,45.551,45.551,0,0,0,33.771-64.088,2.108,2.108,0,0,0-2.8-1.024Zm-9.295,49.421a2.108,2.108,0,1,1,.617-1.49A2.094,2.094,0,0,1,208.355,208.842Z" transform="translate(-125.172 -125.659)" fill="#f81"/>
  <path id="Path_54" data-name="Path 54" d="M41.141,115.03a2.109,2.109,0,0,0,2.92-.605v0a2.108,2.108,0,1,0-2.92.607Z" transform="translate(-31.718 -87.727)" fill="#f81"/>
  <path id="Path_55" data-name="Path 55" d="M90.679,211.466a2.089,2.089,0,0,0-1.493.62l-.04.04c-.2.2-.411.406-.619.605h0a49.744,49.744,0,0,1-81.3-52.8l-.016,0c.147-.406.3-.812.456-1.215a2.11,2.11,0,0,0-1.191-2.732,2.051,2.051,0,0,0-.769-.148,2.1,2.1,0,0,0-1.965,1.337q-.3.764-.576,1.539l-.015-.007a53.981,53.981,0,0,0,87.126,58.17v0l.07-.065c.107-.1.212-.2.318-.3q.35-.324.695-.653l.012-.011h0c.255-.244.508-.489.758-.739l.015-.015c.008-.011.019-.019.027-.03a2.107,2.107,0,0,0-1.49-3.6Z" transform="translate(0 -122.98)" fill="#f81"/>
  <path id="Path_56" data-name="Path 56" d="M455.152,381.065a2.107,2.107,0,1,0-2.31,3.525,2.107,2.107,0,0,0,2.31-3.525Z" transform="translate(-356.627 -300.461)" fill="#f81"/>
</svg>
