<svg id="_037-aqualung" data-name="037-aqualung" xmlns="http://www.w3.org/2000/svg" width="117.736" height="117.736" viewBox="0 0 117.736 117.736">
  <path id="Path_1" data-name="Path 1" d="M117.736,31.963c0-7.682-5.163-14.629-12.275-16.517a15.122,15.122,0,0,0-11.347,1.5,18.49,18.49,0,0,0-2.44,1.615,2.291,2.291,0,0,0-.842-.161V13.8h4.6a6.9,6.9,0,0,0,0-13.8h-23a6.9,6.9,0,0,0,0,13.8h4.6v4.6a2.3,2.3,0,0,0-2.3,2.3v7.72L67.69,21.371a9.2,9.2,0,0,0-18.242,1.322L42.87,29.27l-.328-.328V20.7a2.3,2.3,0,0,0-2.3-2.3V13.8h4.6a6.9,6.9,0,1,0,0-13.8h-23a6.9,6.9,0,1,0,0,13.8h4.6v4.6a2.3,2.3,0,0,0-.514.06,18.33,18.33,0,0,0-2.308-1.514,15.118,15.118,0,0,0-11.347-1.5C5.163,17.335,0,24.281,0,31.963,0,41.315,4.989,52.406,6.031,54.62a21.821,21.821,0,0,0,4.317,33.623v27.194a2.328,2.328,0,0,0,2.3,2.3H54.039a2.324,2.324,0,0,0,2.3-2.3v-2.07h4.6v2.07a2.33,2.33,0,0,0,2.3,2.3h41.391a2.323,2.323,0,0,0,2.3-2.3V101.577a2.3,2.3,0,0,0-4.6,0v2.362H94.281a2.3,2.3,0,0,0,0,4.6h8.048v4.6H65.536v-4.6h8.048a2.3,2.3,0,1,0,0-4.6H65.536V47.5a6.853,6.853,0,0,1,2.021-4.88L77.986,32.193H89.879l10.428,10.428a6.869,6.869,0,0,1,1.679,2.727c-1.046,5.061-2.32,10.3-3.313,13.993a11.494,11.494,0,0,0,3.666,21.747,2.3,2.3,0,0,0,4.588-.208v-.17a11.488,11.488,0,0,0,5.318-18.728c1.132-4.327,5.49-21.535,5.49-30.02ZM93.131,4.6h2.3a2.3,2.3,0,0,1,0,4.6h-2.3Zm-18.4,4.6h-2.3a2.3,2.3,0,0,1,0-4.6h2.3ZM42.541,4.6h2.3a2.3,2.3,0,0,1,0,4.6h-2.3Zm-18.4,4.6h-2.3a2.3,2.3,0,0,1,0-4.6h2.3Zm34.493,9.2a4.6,4.6,0,1,1-4.6,4.6A4.6,4.6,0,0,1,58.638,18.4Zm-7.822,9.432a9.263,9.263,0,0,0,3.32,3.184l-4.762,4.762-3.252-3.252ZM28.744,4.6h9.2V9.2h-9.2Zm6.9,9.2v4.6h-4.6V13.8Zm-6.9,9.2h9.2v4.6h-9.2ZM4.6,31.963a12.461,12.461,0,0,1,8.858-12.073,10.191,10.191,0,0,1,2.622-.344,11.021,11.021,0,0,1,5.328,1.426,14.659,14.659,0,0,1,2.738,1.973v6l-.471.471c-3.685-5.472-7.188-5.567-9.037-5.077-3.05.81-5.438,4.161-5.438,7.628,0,6.265,3.116,14.118,4.559,17.419A21.82,21.82,0,0,0,9.679,51.54C8.161,48.127,4.6,39.334,4.6,31.963Zm15.746.779-5.591,5.591a26.767,26.767,0,0,1-.957-6.369,3.5,3.5,0,0,1,2.018-3.182c.9-.238,2.67.919,4.529,3.961ZM4.6,69.676A17.246,17.246,0,1,1,21.846,86.922,17.266,17.266,0,0,1,4.6,69.676Zm56.338,39.092h-4.6v-4.6h4.6Zm0-9.2h-4.6v-13.8h4.6Zm0-18.4h-4.6v-4.6h4.6ZM64.3,39.37A11.512,11.512,0,0,0,60.937,47.5V71.975h-4.6V67.084a2.3,2.3,0,1,0-4.6,0v36.855H43.691a2.3,2.3,0,1,0,0,4.6h8.048v4.6H14.947v-4.6H23a2.3,2.3,0,0,0,0-4.6H14.947V90.4a21.846,21.846,0,1,0,3.281-42.273c-.517-1.138-1.218-2.818-1.911-4.752.2-.265,11.079-11.186,11.079-11.186H39.29L49.718,42.622a6.931,6.931,0,0,1,1.971,4.047,2.3,2.3,0,0,0,4.567-.554,11.515,11.515,0,0,0-3.284-6.745l-.345-.345,6.6-6.6,6.011,6.011Zm4.189-4.188-4.626-4.626a9.259,9.259,0,0,0,3.015-3.489l4.863,4.863Zm20.039-7.588h-9.2V23h9.2Zm-6.9-9.2V13.8h4.6v4.6Zm6.9-9.2h-9.2V4.6h9.2Zm7.8,11.774a10.6,10.6,0,0,1,7.951-1.081h0a12.461,12.461,0,0,1,8.857,12.073c0,6.368-2.9,19.314-4.9,27.147a11.43,11.43,0,0,0-4.515-.932c1.425-5.6,4.811-19.6,4.811-26.215,0-3.467-2.389-6.818-5.439-7.628a5.635,5.635,0,0,0-1.446-.187c-2,0-4.834,1.04-7.773,5.541l-.748-.748V23.368a15.106,15.106,0,0,1,3.2-2.4Zm.892,12.058c1.926-3.258,3.774-4.5,4.7-4.25a3.5,3.5,0,0,1,2.02,3.183,48.013,48.013,0,0,1-.759,7.025Zm6.488,43.544a6.9,6.9,0,1,1,6.9-6.9A6.906,6.906,0,0,1,103.709,76.574Z" transform="translate(0)" fill="#f81"/>
  <path id="Path_2" data-name="Path 2" d="M109.752,336.609a2.3,2.3,0,1,0-1.994-1.15A2.279,2.279,0,0,0,109.752,336.609Z" transform="translate(-82.741 -255.664)" fill="#f81"/>
  <path id="Path_3" data-name="Path 3" d="M42.309,292.81A2.3,2.3,0,0,0,40,295.1v.053a2.3,2.3,0,1,0,4.6,0v-.035A2.3,2.3,0,0,0,42.309,292.81Z" transform="translate(-30.802 -225.477)" fill="#f81"/>
  <path id="Path_4" data-name="Path 4" d="M64.933,258.54a2.3,2.3,0,1,0-2-1.154A2.291,2.291,0,0,0,64.933,258.54Z" transform="translate(-48.229 -195.548)" fill="#f81"/>
  <path id="Path_5" data-name="Path 5" d="M108.753,258.367a2.3,2.3,0,1,0-.83-3.146A2.288,2.288,0,0,0,108.753,258.367Z" transform="translate(-82.865 -195.653)" fill="#f81"/>
  <path id="Path_6" data-name="Path 6" d="M65.922,332.271a2.3,2.3,0,0,0-2.3,3.978,2.269,2.269,0,0,0,1.15.311,2.3,2.3,0,0,0,1.154-4.289Z" transform="translate(-48.105 -255.625)" fill="#f81"/>
  <path id="Path_7" data-name="Path 7" d="M132.295,297.689h0a2.3,2.3,0,1,0-2.3-2.3A2.3,2.3,0,0,0,132.3,297.689Z" transform="translate(-100.106 -225.693)" fill="#f81"/>
  <path id="Path_8" data-name="Path 8" d="M85.749,295.3a2.3,2.3,0,0,0-2.3-2.3H82.3a2.3,2.3,0,1,0,0,4.6h1.15A2.3,2.3,0,0,0,85.749,295.3Z" transform="translate(-61.604 -225.624)" fill="#f81"/>
  <path id="Path_9" data-name="Path 9" d="M227.3,236.729a2.3,2.3,0,1,0,2.3,2.3A2.3,2.3,0,0,0,227.3,236.729Z" transform="translate(-173.261 -182.293)" fill="#f81"/>
  <path id="Path_10" data-name="Path 10" d="M137.3,452a2.3,2.3,0,1,0,2.3,2.3A2.3,2.3,0,0,0,137.3,452Z" transform="translate(-103.956 -348.061)" fill="#f81"/>
  <path id="Path_11" data-name="Path 11" d="M447.3,386.729a2.3,2.3,0,1,0,2.3,2.3A2.3,2.3,0,0,0,447.3,386.729Z" transform="translate(-342.671 -297.8)" fill="#f81"/>
  <path id="Path_12" data-name="Path 12" d="M355,454.3a2.3,2.3,0,1,0,2.3-2.3A2.3,2.3,0,0,0,355,454.3Z" transform="translate(-273.367 -348.061)" fill="#f81"/>
  <ellipse id="Ellipse_6" data-name="Ellipse 6" cx="2.5" cy="2" rx="2.5" ry="2" transform="translate(102 67)" fill="#f81"/>
</svg>
