<svg id="_041-yatch" data-name="041-yatch" xmlns="http://www.w3.org/2000/svg" width="174.208" height="117.386" viewBox="0 0 174.208 117.386">
  <path id="Path_13" data-name="Path 13" d="M359.412,264.687a3.4,3.4,0,0,0,6.271.445,3.361,3.361,0,0,0,.184-2.6,3.4,3.4,0,0,0-3.226-2.327,3.4,3.4,0,0,0-3.229,4.478Z" transform="translate(-237.007 -200.084)" fill="#f81"/>
  <path id="Path_14" data-name="Path 14" d="M183.208,168.5H176.4a3.4,3.4,0,1,0,0,6.805h6.805a3.4,3.4,0,1,0,0-6.805Z" transform="translate(-114.137 -139.579)" fill="#f81"/>
  <path id="Path_15" data-name="Path 15" d="M281.5,258.707A10.208,10.208,0,1,0,291.708,248.5,10.219,10.219,0,0,0,281.5,258.707Zm13.61,0a3.4,3.4,0,1,1-3.4-3.4A3.406,3.406,0,0,1,295.11,258.707Z" transform="translate(-185.72 -192.359)" fill="#f81"/>
  <path id="Path_16" data-name="Path 16" d="M201.5,258.707A10.208,10.208,0,1,0,211.708,248.5,10.219,10.219,0,0,0,201.5,258.707Zm13.61,0a3.4,3.4,0,1,1-3.4-3.4A3.406,3.406,0,0,1,215.11,258.707Z" transform="translate(-132.94 -192.359)" fill="#f81"/>
  <path id="Path_17" data-name="Path 17" d="M173.437,140.887a3.4,3.4,0,0,0-2.631-1.245H152.092a3.4,3.4,0,0,0-3.351,2.816l-4.542,24.4h-8.368l-2.129-6.383a3.4,3.4,0,0,0-3.226-2.328,3.3,3.3,0,0,0-1.075.177,3.4,3.4,0,0,0-2.154,4.3l1.412,4.23H65.39l-5.865-11.729a3.4,3.4,0,0,0-3.043-1.881H22.867l6.806-20.415h87.642l.248.742a3.4,3.4,0,1,0,6.455-2.15L123,128.36a3.4,3.4,0,0,0-3.229-2.327h-13.61V115.825a3.4,3.4,0,0,0-3.4-3.4H97.63L107.6,88.2a3.4,3.4,0,0,0-6.295-2.593L90.268,112.422H86.7l-2.758-11.033a3.4,3.4,0,0,0-3.3-2.577h-29.6a3.4,3.4,0,0,0-3.186,2.208l-9.38,25.012H27.22a3.4,3.4,0,0,0-3.229,2.327l-8.3,24.893H3.4A3.4,3.4,0,0,0,.482,158.4l14.3,23.934A37.557,37.557,0,0,0,47.1,200.887H148.69a3.4,3.4,0,0,0,3.344-2.775l5.1-27.22a3.4,3.4,0,0,0-3.344-4.029h-2.655l1.361-6.8h15.584a3.4,3.4,0,0,0,3.337-2.735l2.722-13.61A3.4,3.4,0,0,0,173.437,140.887ZM53.4,105.617H77.983l2.758,11.033a3.4,3.4,0,0,0,3.3,2.577H99.353v6.8H45.74Zm92.47,88.465H47.1a30.725,30.725,0,0,1-26.451-15.193l-.018-.031L9.4,160.057h44.98l5.865,11.729a3.4,3.4,0,0,0,3.043,1.881h86.407Zm19.429-40.83H153.76l1.191-6.805h11.7Z" transform="translate(-0.001 -83.501)" fill="#f81"/>
  <path id="Path_18" data-name="Path 18" d="M128.4,328.5a3.4,3.4,0,1,0,3.4,3.4A3.4,3.4,0,0,0,128.4,328.5Z" transform="translate(-82.469 -245.139)" fill="#f81"/>
  <path id="Path_19" data-name="Path 19" d="M83.4,328.5a3.4,3.4,0,1,0,3.4,3.4A3.4,3.4,0,0,0,83.4,328.5Z" transform="translate(-52.78 -245.139)" fill="#f81"/>
  <path id="Path_20" data-name="Path 20" d="M142,251.9a3.4,3.4,0,1,0,3.4-3.4A3.4,3.4,0,0,0,142,251.9Z" transform="translate(-93.685 -192.359)" fill="#f81"/>
  <path id="Path_21" data-name="Path 21" d="M97,251.9a3.4,3.4,0,1,0,3.4-3.4A3.4,3.4,0,0,0,97,251.9Z" transform="translate(-63.996 -192.359)" fill="#f81"/>
</svg>
