<svg id="_049-bell" data-name="049-bell" xmlns="http://www.w3.org/2000/svg" width="43.011" height="57.952" viewBox="0 0 43.011 57.952">
  <path id="Path_25" data-name="Path 25" d="M104.484,37.578H103.3a2.035,2.035,0,0,1-1.6-1.107,4.936,4.936,0,0,1-.377-1.65c-.06-.668-.065-1.436-.065-2.371V28.539a1.132,1.132,0,0,0-2.264,0s0,4.13,0,4.24a13.021,13.021,0,0,0,.448,4.144,4.807,4.807,0,0,0,.278.655H75.287c.025-.046.047-.093.068-.139a7.01,7.01,0,0,0,.585-2.414c.072-.817.074-1.681.074-2.516V18.282a11.476,11.476,0,0,1,.9-4.473h5.491a1.132,1.132,0,0,0,0-2.264H78.2a11.663,11.663,0,0,1,1.185-1.389,11.492,11.492,0,0,1,16.25,0,11.652,11.652,0,0,1,1.185,1.389H92.594a1.132,1.132,0,1,0,0,2.264h5.5a11.469,11.469,0,0,1,.9,4.473v.07a1.132,1.132,0,1,0,2.264,0v-.07a13.659,13.659,0,0,0-1.081-5.354,13.857,13.857,0,0,0-6.024-6.689C93.521,2.683,90.782,0,87.506,0s-6.015,2.683-6.649,6.238c-.041.228-1.6,1.028-1.85,1.227a13.763,13.763,0,0,0-5.256,10.817V32.448a12.758,12.758,0,0,1-.325,3.735,2.129,2.129,0,0,1-1.715,1.395H70.527a4.527,4.527,0,0,0,0,9.055h9.137a7.939,7.939,0,0,0,6.7,6.708V56.82a1.132,1.132,0,1,0,2.264,0V53.343a7.939,7.939,0,0,0,6.714-6.71h9.137a4.528,4.528,0,0,0,0-9.055ZM87.506,2.264a4.482,4.482,0,0,1,3.95,2.84,13.824,13.824,0,0,0-7.9,0A4.482,4.482,0,0,1,87.506,2.264Zm0,48.9a5.669,5.669,0,0,1-5.546-4.527H93.051A5.669,5.669,0,0,1,87.506,51.161Zm16.978-6.791H70.527a2.264,2.264,0,0,1,0-4.527h33.956a2.264,2.264,0,1,1,0,4.527Z" transform="translate(-66 0)" fill="#0c1728"/>
  <path id="Path_26" data-name="Path 26" d="M358.651,197.139a1.132,1.132,0,1,0,1.132,1.132A1.133,1.133,0,0,0,358.651,197.139Z" transform="translate(-324.523 -174.825)" fill="#0c1728"/>
  <path id="Path_27" data-name="Path 27" d="M245.958,103.131A1.132,1.132,0,1,0,247.09,102,1.134,1.134,0,0,0,245.958,103.131Z" transform="translate(-225.589 -90.454)" fill="#0c1728"/>
</svg>
